PathFileType	4	(X/Y/Z)	RBDS013\RBDS013runT35.trc
DataRate	CameraRate	NumFrames	NumMarkers	Units	OrigDataRate	OrigDataStartFrame	OrigNumFrames
150.000000	150.000000	4	33	mm	150.000000	3937	4500
Frame#	Time	L.ASIS			L.Heel.Bottom			L.Heel.Lateral			L.Heel.Top			L.Iliac.Crest			L.MT1			L.MT5			L.PSIS			L.Shank.Bottom.Lateral			L.Shank.Bottom.Medial			L.Shank.Top.Lateral			L.Shank.Top.Medial			L.Thigh.Bottom.Lateral			L.Thigh.Bottom.Medial			L.Thigh.Top.Lateral			L.Thigh.Top.Medial			R.ASIS			R.ASY			R.Heel.Bottom			R.Heel.Lateral			R.Heel.Top			R.Iliac.Crest			R.MT1			R.MT5			R.PSIS			R.Shank.Bottom.Lateral			R.Shank.Bottom.Medial			R.Shank.Top.Lateral			R.Shank.Top.Medial			R.Thigh.Bottom.Lateral			R.Thigh.Bottom.Medial			R.Thigh.Top.Lateral			R.Thigh.Top.Medial			
		X1	Y1	Z1	X2	Y2	Z2	X3	Y3	Z3	X4	Y4	Z4	X5	Y5	Z5	X6	Y6	Z6	X7	Y7	Z7	X8	Y8	Z8	X9	Y9	Z9	X10	Y10	Z10	X11	Y11	Z11	X12	Y12	Z12	X13	Y13	Z13	X14	Y14	Z14	X15	Y15	Z15	X16	Y16	Z16	X17	Y17	Z17	X18	Y18	Z18	X19	Y19	Z19	X20	Y20	Z20	X21	Y21	Z21	X22	Y22	Z22	X23	Y23	Z23	X24	Y24	Z24	X25	Y25	Z25	X26	Y26	Z26	X27	Y27	Z27	X28	Y28	Z28	X29	Y29	Z29	X30	Y30	Z30	X31	Y31	Z31	X32	Y32	Z32	X33	Y33	Z33	

3938	26.24666666666667	2312.978796046207	949.878577042348	894.7508698381453	2407.503931347205	83.36191547060589	978.7155430081652	2425.470201800214	103.3746873914836	932.2547212658905	2409.199507919494	130.1957896905626	971.031535952813	2256.858181577965	1030.698302848713	856.3447178778804	2614.232149961061	134.2943926051358	990.903786738317	2581.060322400787	99.04049264345616	891.1822387002508	2160.522460615892	1012.254703448628	953.6055932384887	2442.352648103763	226.4906979868132	904.558220853598	2406.651437746636	223.2978237865573	946.7044970046663	2418.685616980525	302.0235579572284	890.1284910901736	2384.148818133542	299.6309163763245	931.4309295631444	2395.657145384921	633.0170641112871	857.595558045334	2332.949304596156	604.1710990542906	881.2148980100355	2341.672484745669	726.4898440197833	836.4665281789147	2282.071093461559	699.6516869225153	858.3102264673232	2323.677695848303	949.3289677238398	1121.475278365939	1708.173695456207	310.6175183728711	1084.810612387567	1624.10478412102	470.1486670347286	1019.745467383766	1637.010307699641	459.0956259692203	1067.848070480714	1673.159752272156	473.282453746884	1032.679603066259	2291.358188870742	1026.13313353404	1146.231183291447	1686.876750734905	271.7303059780016	1037.218297910683	1645.098311309803	312.6746996637327	1129.323719965631	2166.147434845541	1020.860375440276	1053.376648403896	1744.475750938357	461.6163138495722	1103.076680461974	1739.834205945275	488.6206866071782	1059.552053389405	1816.32210282203	503.5507402375738	1118.821488611032	1808.056289416401	529.7830835501986	1072.987094437181	2120.919270104522	669.2896044851865	1165.416886404562	2069.252026951967	689.9462386007955	1116.739608408278	2153.295948118658	774.1163071572497	1171.111804379701	2105.72524815517	793.7273111001233	1123.560044874629	
3939	26.25333333333333	2312.679018793388	947.9830031954664	895.1173905993236	2419.618584817124	76.94942387959968	979.3867450182681	2437.030965854774	96.91430389046691	932.6683584064407	2419.618866716646	123.7280829387458	970.9889477775442	2255.765064359192	1027.366851558346	856.554668686027	2624.523973732733	135.4834745733402	991.1585034580777	2592.819986259253	97.22623958883619	891.9433000848601	2159.901214557211	1008.931054623544	953.7166575756725	2449.409601169526	221.6582833890503	904.1492614217849	2413.206488895386	217.0726688555739	945.8473876118438	2422.706177556563	296.2944227679099	889.4377282916203	2387.684719641835	292.5723227581982	930.3190309911618	2390.836778798841	627.0436313078939	856.973710485608	2327.696462973354	599.9435264137588	881.8051352369977	2338.953555744491	721.8193481003005	836.2376648224114	2278.940716546274	696.6173791943977	859.0685569632466	2324.068765437676	948.5538197402738	1122.444188301009	1699.780810451636	330.5932846115818	1083.9192336939	1625.699574157333	495.5774758218778	1019.975670681859	1638.044543435389	483.5379514243127	1068.161600010966	1674.884901387764	495.3651318629572	1032.534249663829	2288.90370635595	1025.626554557427	1146.891778637452	1675.46773310906	293.1729082754404	1036.587930007993	1637.106851667607	336.5354601961448	1128.915354653019	2166.022887767934	1017.772661804945	1052.974297453891	1745.111998022276	477.8401302014939	1103.203890262009	1742.019205894474	505.8018308177419	1060.11786239758	1819.54922581864	514.8277111680618	1119.158436283267	1812.762129746696	542.375135165865	1073.883146454667	2125.632660729727	665.1996895594089	1165.876019633575	2073.381040795241	685.4288189653633	1117.591709135031	2156.603855458046	770.3805216945008	1171.853759462387	2108.509411974708	789.5645274931494	1124.678209228659	
3940	26.26	2312.322602736164	945.7970649739177	895.384704734832	2427.726228088776	71.44903036001176	979.962345561987	2444.830063042768	91.14150066682247	933.0172371648844	2426.555997533069	118.0888614700703	970.8605857754142	2254.665401457466	1023.847859341057	856.824307449649	2631.047104809159	135.2530967493057	991.569269620761	2600.623669389038	94.49243643990846	892.8038014605661	2159.195831797991	1005.084616833721	954.0887787190101	2453.844446014546	217.0697597655902	903.7678199461451	2417.230222092219	211.3986305444939	945.1261932237614	2424.87840567056	290.9930121743885	888.9015734226539	2389.484031764403	286.2469888117905	929.4762234240845	2386.771611674405	621.577678439241	856.6311121502047	2323.272955033414	595.9488604253553	882.3793285382808	2336.70817457802	717.4536585447264	836.2230746175787	2276.386371871737	693.6427420997537	859.8171067386764	2324.534434146966	947.0963539600971	1123.326073686724	1693.491272544751	350.5671016805759	1082.75748241596	1629.799580766156	520.6766181541217	1020.599298901322	1641.552555554614	507.5314134019818	1068.839641191339	1678.923060721196	517.0411954899308	1032.709888969763	2286.727532127174	1024.307439695858	1147.603198913756	1666.223852051052	314.9838017134845	1035.631626436339	1631.537024939348	360.2782489733252	1128.358655411728	2165.869844473515	1013.858350326519	1052.920782904937	1747.704509760761	493.477269146863	1103.483653615776	1746.162488452798	522.4274363195227	1060.950178702243	1824.425427495604	525.3451858321923	1119.659058878074	1819.126068456385	554.2607641914763	1075.071036313698	2130.670837647099	660.3499198032432	1166.253480305905	2077.800185268111	680.0935683399914	1118.380946669384	2160.099212065471	765.8747419676048	1172.551376021918	2111.451264445968	784.5941444217279	1125.818534331069	
3941	26.26666666666667	2311.918790390447	943.3192108700594	895.5212412361467	2431.652497610214	66.58900091876458	980.4322512090059	2448.692838325818	85.84470922367939	933.3073448918889	2429.856117401535	113.0519787538406	970.6880008666561	2253.575579521516	1020.20387032382	857.1388962653455	2633.805505920238	133.2772533415425	992.1721279171959	2604.398886850056	90.65185367821644	893.7426010638934	2158.453849211982	1000.758265168335	954.7211914270558	2455.571510118551	212.5051241300573	903.4620652552421	2418.657755504399	206.1031322710529	944.6088796685934	2425.173961648472	285.9595486520642	888.5537262954687	2389.533349587539	280.5432143984375	928.9566245065886	2383.549824831793	616.6065527043341	856.5535295230475	2319.767844225106	592.1223221807372	882.9113130607211	2334.948615352012	713.348074141664	836.4011982996299	2274.415292707832	690.6328209781216	860.528152757518	2325.092290425159	944.9440611964942	1124.071664522032	1689.372245569308	370.337329448609	1081.387960199981	1636.353303149228	545.0968559201216	1021.545421067348	1647.452677427976	530.7624567950539	1069.802612646083	1685.205861615698	538.0295073532212	1033.161459252169	2284.946735045816	1022.125816800077	1148.34729774092	1659.299286820102	336.9356781222763	1034.401343688247	1628.409178760962	383.6585336980283	1127.686970545536	2165.70188219547	1009.184914639356	1053.253201276455	1752.178219950681	508.397264248172	1103.877057155995	1752.214649901773	538.3229133760923	1061.980207544614	1830.847399244044	535.0370226275222	1120.282620418751	1827.078654641226	565.3191228686413	1076.4724609121	2135.99710981647	654.7841210204773	1166.566406301159	2082.48019882697	673.9685821392603	1119.117250584445	2163.753798602268	760.6408412286672	1173.192525239739	2114.518396550198	778.8504241384474	1126.966336017432	
